<?xml version="1.0" encoding="UTF-8"?>
<svg id="Vrstva_1" xmlns="http://www.w3.org/2000/svg" version="1.1" viewBox="0 0 700 250">
  <!-- Generator: Adobe Illustrator 30.3.0, SVG Export Plug-In . SVG Version: 2.1.3 Build 182)  -->
  <defs>
    <style>
      .st0 {
        fill: #0088cf;
      }

      .st1 {
        fill: #004f9f;
      }
    </style>
  </defs>
  <g>
    <path class="st0" d="M218.07,113.89c-12.74-5.83-23.46-12.32-34.28-20.11-4.66-3.36-8.09-8.29-11.1-13.2-3.78-6.17-2.17-13.26,3.1-18.41,16.2-15.85,50.34-21.09,72.69-21.09,5.56,0,11.56,1.1,16.44,1.97,7.05,1.25,8.09,6.54,8.3,12.12.65,17.45-1.3,33.47-9.01,49.19-11.65,23.74-14.87-11.55-46.13,9.54Z"/>
    <path class="st0" d="M235.41,166.45c3.83,15.1,6.79,39.59-9.38,47.97-7.16,3.71-13.78,2.8-20.55.59-11.27-3.68-21.84-7.36-31.55-16.11,19.01-30.5,14.46-69.7-5.37-98.74-1.05-1.54-1.82-5.87.14-5.97l44.74,26.07c-6.6,14.7-.26,30.91,14.24,36.63,4.4,1.74,6.6,5.11,7.73,9.55Z"/>
    <path class="st0" d="M278.32,187.77c-15.58-3.29-38.4-21.26-35.44-28.79.98-2.5,24.49-5.93,18.78-35.2,6.81-10.29,28.98-33.83,40.72-29.2,24.2,9.53,6,99.53-24.06,93.2Z"/>
    <path class="st0" d="M251.09,124.8c4.83,10.56-.51,20.92-9.73,23.53-9.77,2.77-18.82-3.51-20.43-13.11-1.64-9.81,5.06-18.76,16.3-18.31,4.58.18,11.77,3.34,13.85,7.89Z"/>
  </g>
  <path class="st0" d="M170.25,149.84c-3.95-39.32-38.8-82.14-64.28-111.66-1.68-1.94-2.4-3.71-4.68-3.87-2.34-.16-3.62,1.13-5.19,3.14l-19.65,25.06c-13.52,17.25-25.94,35.03-35.89,54.6-13.04,25.64-13.55,60.77,6.1,82.36,26.07,28.64,65.23,31.78,96.43,10.04,19.56-13.63,29.61-35.39,27.17-59.68ZM62.98,194.19c-26.14-22.97-13.49-56.07-13.49-56.07,0,0,2.24,20.35,21.3,43.91,18.3,22.61,49.54,19.8,49.54,19.8,0,0-31.21,15.34-57.35-7.63Z"/>
  <g>
    <path class="st0" d="M411.89,79.49v-20.75c0-4.33-1.18-7.62-3.48-9.92-2.5-2.5-6.17-3.74-10.97-3.74s-8.6,1.12-12.35,2.82l1.51,4.14c3.15-1.44,6.3-2.5,10.31-2.5,6.37,0,10.11,3.15,10.11,9.26v1.18c-3.02-.85-6.11-1.44-10.44-1.44-8.6,0-14.51,3.81-14.51,10.97v.13c0,6.96,6.37,10.57,12.68,10.57,5.98,0,9.92-2.76,12.28-5.84v5.12h4.86ZM395.73,76.2c-4.6,0-8.54-2.5-8.54-6.76v-.13c0-4.27,3.55-7.03,9.92-7.03,4.14,0,7.49.72,9.98,1.44v3.28c0,5.39-5.12,9.19-11.36,9.19Z"/>
    <polygon class="st0" points="446.17 75.22 423.58 75.22 446.17 48.75 446.17 45.53 417.54 45.53 417.54 49.8 439.28 49.8 416.75 76.27 416.75 79.49 446.17 79.49 446.17 75.22"/>
    <path class="st0" d="M479.14,73.91l-3.15-2.82c-2.76,2.89-6.04,4.79-10.7,4.79-6.04,0-11.23-4.14-11.95-11.49h26.93c.07-.59.07-.99.07-1.64,0-9.92-5.78-17.93-15.83-17.93-9.39,0-16.29,7.88-16.29,17.67v.13c0,10.51,7.62,17.67,16.94,17.67,6.44,0,10.57-2.56,13.99-6.37ZM464.37,49.08c6.76,0,10.31,5.39,10.84,11.56h-21.87c.66-6.63,5.12-11.56,11.03-11.56Z"/>
    <polygon class="st0" points="473.82 33.32 468.57 30.89 462.4 40.41 466.34 40.41 473.82 33.32"/>
    <path class="st0" d="M490.31,60.05c0-6.37,4.33-10.64,10.18-10.64s9.39,3.94,9.39,10.25v19.83h5.06v-21.08c0-8.08-4.79-13.59-13-13.59-5.85,0-9.39,2.96-11.62,6.63v-5.91h-5.06v33.95h5.06v-19.44Z"/>
    <path class="st0" d="M551.58,45.53h-5.39l-10.9,28.31-12.35-28.31h-5.58l15.43,33.82c-2.04,4.79-3.94,6.37-6.96,6.37-2.17,0-3.68-.39-5.32-1.25l-1.71,4.01c2.3,1.12,4.4,1.71,7.22,1.71,5.12,0,8.41-2.56,11.3-9.59l14.25-35.07Z"/>
    <path class="st0" d="M380.37,98.37h-6.76l-26.4,27.45v-27.45h-2.28l-4.22-4.56c1.5-2.05,4.82-10.45,6.28-14.32h15.45c10.05,0,16.68-4.66,16.68-12.54v-.13c0-6.3-4.4-9.46-9.85-11.1,3.61-1.58,7.29-4.66,7.29-10.64v-.13c0-2.96-1.05-5.39-2.96-7.36-2.63-2.56-6.76-4.07-12.02-4.07h-19.57v45.97h4.12c-1.5,3.97-4.58,11.82-5.95,13.76l-8.69-9.37c5.63-2.49,7.48-4.58,7.48-7.52v-.08c0-2.86-2.41-5.67-6.23-5.67-4.14,0-6.39,3.1-6.39,5.83v.08c0,2.05.97,4.18,3.78,7.12-3.9,1.81-7.76,3.9-7.76,8.65v.08c0,3.9,3.38,7.28,8.32,7.28,3.78,0,6.96-1.97,9.53-5.19l3.61,3.92h-1.83v45.97h5.19v-12.35l9.79-9.92,17.67,22.26h6.5l-20.56-25.88,19.77-20.1ZM347.14,38.18h13.99c6.57,0,10.18,2.96,10.18,7.49v.13c0,5.39-4.33,8.21-10.57,8.21h-13.59v-15.83ZM347.14,58.6h14.51c8.01,0,12.22,2.89,12.22,7.88v.13c0,5.12-4.33,8.21-11.3,8.21h-15.43v-16.22ZM327.19,76.48v-.08c0-2.41,2.05-5.03,5.55-5.03s5.39,2.49,5.39,4.91v.08c0,2.69-1.69,4.54-7.2,6.96-2.86-2.9-3.74-4.95-3.74-6.84ZM330.69,98.84c-4.5,0-7.44-3.06-7.44-6.47v-.08c0-4.46,3.7-6.31,7.48-8.04l8.97,9.65c-2.37,3.02-5.47,4.95-9.01,4.95Z"/>
    <rect class="st0" x="384.9" y="96.4" width="5.06" height="47.94"/>
    <rect class="st0" x="397.9" y="97.39" width="5.78" height="5.58"/>
    <rect class="st0" x="398.23" y="110.39" width="5.06" height="33.95"/>
    <path class="st0" d="M449.98,109.67c-5.91,0-9.52,3.02-11.95,6.76-1.84-3.81-5.39-6.76-10.9-6.76s-8.73,3.09-10.97,6.44v-5.71h-5.06v33.95h5.06v-19.37c0-6.24,4.07-10.7,9.46-10.7s8.73,3.74,8.73,10.11v19.96h4.99v-19.57c0-6.7,4.27-10.51,9.39-10.51,5.52,0,8.8,3.68,8.8,10.25v19.83h5.06v-21.02c0-8.41-4.79-13.66-12.61-13.66Z"/>
    <path class="st0" d="M482.23,109.93c-4.93,0-8.6,1.12-12.35,2.82l1.51,4.14c3.15-1.44,6.3-2.5,10.31-2.5,6.37,0,10.11,3.15,10.11,9.26v1.18c-3.02-.85-6.11-1.44-10.44-1.44-8.6,0-14.51,3.81-14.51,10.97v.13c0,6.96,6.37,10.57,12.68,10.57,5.98,0,9.92-2.76,12.28-5.84v5.12h4.86v-20.75c0-4.33-1.18-7.62-3.48-9.92-2.5-2.5-6.17-3.74-10.97-3.74ZM491.88,131.87c0,5.39-5.12,9.19-11.36,9.19-4.6,0-8.54-2.5-8.54-6.76v-.13c0-4.27,3.55-7.03,9.92-7.03,4.14,0,7.49.72,9.98,1.44v3.28Z"/>
    <path class="st0" d="M510.01,100.15h-5.06v10.25h-4.73v4.47h4.73v20.49c0,6.9,4.14,9.59,9.59,9.59,2.43,0,4.33-.53,6.11-1.44v-4.33c-1.77.85-3.22,1.18-4.93,1.18-3.41,0-5.71-1.51-5.71-5.65v-19.83h10.77v-4.47h-10.77v-10.25Z"/>
    <rect class="st0" x="525.91" y="97.39" width="5.78" height="5.58"/>
    <rect class="st0" x="526.23" y="110.39" width="5.06" height="33.95"/>
    <polygon class="st0" points="537.92 114.66 559.66 114.66 537.14 141.13 537.14 144.34 566.56 144.34 566.56 140.08 543.97 140.08 566.56 113.61 566.56 110.39 537.92 110.39 537.92 114.66"/>
    <path class="st0" d="M584.49,109.93c-4.93,0-8.6,1.12-12.35,2.82l1.51,4.14c3.15-1.44,6.3-2.5,10.31-2.5,6.37,0,10.11,3.15,10.11,9.26v1.18c-3.02-.85-6.11-1.44-10.44-1.44-8.6,0-14.51,3.81-14.51,10.97v.13c0,6.96,6.37,10.57,12.68,10.57,5.98,0,9.92-2.76,12.28-5.84v5.12h4.86v-20.75c0-4.33-1.18-7.62-3.48-9.92-2.5-2.5-6.17-3.74-10.97-3.74ZM594.14,131.87c0,5.39-5.12,9.19-11.36,9.19-4.6,0-8.54-2.5-8.54-6.76v-.13c0-4.27,3.55-7.03,9.92-7.03,4.14,0,7.49.72,9.98,1.44v3.28Z"/>
    <path class="st0" d="M621.33,140.6c-7.09,0-12.48-5.84-12.48-13.2v-.13c0-7.29,5.25-13.13,12.15-13.13,4.6,0,7.62,2.3,10.31,5.12l3.35-3.55c-3.15-3.35-7.16-6.04-13.59-6.04-9.92,0-17.4,8.14-17.4,17.73v.13c0,9.52,7.49,17.6,17.4,17.6,6.37,0,10.44-2.76,13.86-6.57l-3.22-3.02c-2.69,2.89-6.04,5.06-10.38,5.06Z"/>
    <path class="st0" d="M668.36,127.6c0-9.92-5.78-17.93-15.83-17.93-9.39,0-16.29,7.88-16.29,17.67v.13c0,10.51,7.62,17.67,16.94,17.67,6.44,0,10.57-2.56,13.99-6.37l-3.15-2.82c-2.76,2.89-6.04,4.79-10.7,4.79-6.04,0-11.23-4.14-11.95-11.49h26.93c.07-.59.07-.99.07-1.64ZM641.36,125.5c.66-6.63,5.12-11.56,11.03-11.56,6.76,0,10.31,5.39,10.84,11.56h-21.87Z"/>
  </g>
  <g>
    <path class="st1" d="M342,166.09h26.95c6.63,0,11.86,1.82,15.17,5.14,2.65,2.65,3.98,5.89,3.98,9.87v.17c0,6.55-3.48,10.2-7.63,12.52,6.72,2.57,10.86,6.47,10.86,14.26v.17c0,10.61-8.62,15.92-21.72,15.92h-27.61v-58.04ZM375.41,183.25c0-3.81-2.98-5.97-8.37-5.97h-12.6v12.27h11.77c5.64,0,9.2-1.82,9.2-6.14v-.17ZM369.2,200.17h-14.76v12.77h15.17c5.64,0,9.04-1.99,9.04-6.3v-.17c0-3.9-2.9-6.3-9.45-6.3Z"/>
    <path class="st1" d="M408.5,166.09h26.53c7.38,0,13.1,2.07,16.91,5.89,3.23,3.23,4.98,7.79,4.98,13.27v.17c0,9.37-5.06,15.26-12.44,17.99l14.18,20.73h-14.92l-12.44-18.57h-10.03v18.57h-12.77v-58.04ZM434.2,194.28c6.22,0,9.78-3.32,9.78-8.21v-.17c0-5.47-3.81-8.29-10.03-8.29h-12.69v16.67h12.94Z"/>
    <path class="st1" d="M494.98,165.67h11.77l24.87,58.46h-13.35l-5.31-13.02h-24.54l-5.31,13.02h-13.02l24.87-58.46ZM508.41,199.83l-7.71-18.82-7.71,18.82h15.42Z"/>
    <path class="st1" d="M547.22,166.09h11.77l27.2,35.74v-35.74h12.6v58.04h-10.86l-28.11-36.9v36.9h-12.6v-58.04Z"/>
    <path class="st1" d="M619.35,166.09h22.64c18.24,0,30.85,12.52,30.85,28.86v.17c0,16.33-12.6,29.02-30.85,29.02h-22.64v-58.04ZM632.12,177.61v34.99h9.87c10.45,0,17.5-7.05,17.5-17.33v-.17c0-10.28-7.05-17.5-17.5-17.5h-9.87Z"/>
  </g>
</svg>